<svg width="205" height="61" viewBox="0 0 205 61" fill="none" xmlns="http://www.w3.org/2000/svg">
<rect x="0.859523" y="1.46939" width="202.968" height="58.9685" rx="29.4842" fill="#875DD5"/>
<rect x="0.859523" y="1.46939" width="202.968" height="58.9685" rx="29.4842" stroke="#E2D0FB" stroke-width="1.03155"/>
<path d="M73.1992 30.6453C74.1731 30.8431 74.9567 31.3072 75.5502 32.0376C76.1588 32.768 76.4632 33.6202 76.4632 34.594C76.4632 35.9331 76.0143 36.9983 75.1165 37.7895C74.2187 38.5656 72.9177 38.9536 71.2134 38.9536H64.7996V22.8391H71.0993C72.7123 22.8391 73.9448 23.2043 74.7969 23.9347C75.6643 24.6499 76.098 25.639 76.098 26.902C76.098 27.9215 75.8317 28.7508 75.2991 29.3899C74.7665 30.0138 74.0665 30.4323 73.1992 30.6453ZM67.4016 29.7779H70.62C71.533 29.7779 72.2253 29.5649 72.697 29.1388C73.184 28.7128 73.4274 28.1193 73.4274 27.3585C73.4274 26.6129 73.184 26.027 72.697 25.601C72.2253 25.1749 71.5025 24.9619 70.5287 24.9619H67.4016V29.7779ZM70.6884 36.8081C71.6775 36.8081 72.4384 36.5874 72.9709 36.1461C73.5187 35.6896 73.7926 35.0581 73.7926 34.2517C73.7926 33.4452 73.5187 32.8137 72.9709 32.3572C72.4231 31.9007 71.6547 31.6724 70.6656 31.6724H67.4016V36.8081H70.6884ZM90.5043 26.377V38.9536H87.8794V36.2146C87.5599 37.1428 87.0045 37.8656 86.2132 38.383C85.4219 38.8851 84.5013 39.1362 83.4514 39.1362C81.9906 39.1362 80.8189 38.6645 79.9363 37.7211C79.0538 36.7776 78.6125 35.4309 78.6125 33.681V26.377H81.2145V33.4071C81.2145 34.5484 81.5036 35.4309 82.0819 36.0548C82.6601 36.6635 83.4514 36.9678 84.4557 36.9678C85.4904 36.9678 86.3197 36.6331 86.9436 35.9635C87.5675 35.294 87.8794 34.3201 87.8794 33.0419V26.377H90.5043ZM95.1043 26.377L98.8704 35.6212L102.363 26.377H105.261L97.6607 44.9338H94.7619L97.4781 38.6569L92.1827 26.377H95.1043ZM106.607 22.725C106.607 22.2837 106.759 21.9185 107.064 21.6294C107.368 21.3403 107.771 21.1957 108.273 21.1957C108.776 21.1957 109.179 21.3403 109.483 21.6294C109.803 21.9185 109.963 22.2837 109.963 22.725C109.963 23.1663 109.803 23.5239 109.483 23.7978C109.179 24.0717 108.776 24.2086 108.273 24.2086C107.771 24.2086 107.368 24.0717 107.064 23.7978C106.759 23.5239 106.607 23.1663 106.607 22.725ZM109.574 26.377V38.9536H106.972V26.377H109.574ZM119.753 26.1716C121.214 26.1716 122.386 26.6433 123.268 27.5867C124.151 28.5302 124.592 29.8768 124.592 31.6268V38.9536H121.99V31.9007C121.99 30.7746 121.701 29.9073 121.123 29.2986C120.545 28.6747 119.753 28.3628 118.749 28.3628C117.714 28.3628 116.885 28.6976 116.261 29.3671C115.637 30.0214 115.325 30.9877 115.325 32.2659V38.9536H112.723V26.377H115.325V29.1388C115.66 28.1954 116.223 27.465 117.014 26.9476C117.806 26.4303 118.719 26.1716 119.753 26.1716ZM132.68 26.2172C133.821 26.2172 134.795 26.4987 135.601 27.0618C136.408 27.6248 136.978 28.3704 137.313 29.2986V26.377H139.915V39.0906C139.915 40.2622 139.672 41.297 139.185 42.1948C138.713 43.1078 138.028 43.823 137.131 44.3403C136.233 44.8577 135.168 45.1164 133.935 45.1164C132.17 45.1164 130.74 44.6979 129.644 43.861C128.564 43.0241 127.886 41.8904 127.613 40.4601H130.192C130.405 41.2057 130.816 41.7839 131.424 42.1948C132.033 42.6208 132.809 42.8339 133.752 42.8339C134.787 42.8339 135.639 42.5143 136.309 41.8752C136.978 41.2361 137.313 40.3079 137.313 39.0906V36.032C136.978 36.9602 136.408 37.7058 135.601 38.2689C134.795 38.8319 133.821 39.1134 132.68 39.1134C131.584 39.1134 130.603 38.8547 129.735 38.3373C128.883 37.82 128.214 37.0744 127.727 36.1005C127.24 35.1266 126.996 33.9778 126.996 32.6539C126.996 31.3453 127.24 30.204 127.727 29.2301C128.214 28.2563 128.883 27.5107 129.735 26.9933C130.603 26.4759 131.584 26.2172 132.68 26.2172ZM133.479 28.4997C132.322 28.4997 131.394 28.8725 130.694 29.6182C130.009 30.3486 129.667 31.3605 129.667 32.6539C129.667 33.9473 130.009 34.9668 130.694 35.7125C131.394 36.4429 132.322 36.8081 133.479 36.8081C134.209 36.8081 134.863 36.6407 135.442 36.3059C136.02 35.9559 136.476 35.469 136.811 34.8451C137.146 34.2212 137.313 33.4908 137.313 32.6539C137.313 31.8322 137.146 31.1094 136.811 30.4855C136.476 29.8464 136.02 29.3595 135.442 29.0247C134.863 28.6747 134.209 28.4997 133.479 28.4997Z" fill="#F5F5F8"/>
</svg>
