<svg width="216" height="79" viewBox="0 0 216 79" fill="none" xmlns="http://www.w3.org/2000/svg">
<rect x="0.859523" y="19.4694" width="202.968" height="58.9685" rx="29.4842" fill="#875DD5"/>
<rect x="0.859523" y="19.4694" width="202.968" height="58.9685" rx="29.4842" stroke="#E2D0FB" stroke-width="1.03155"/>
<path d="M73.1992 48.6453C74.1731 48.8431 74.9567 49.3072 75.5502 50.0376C76.1588 50.768 76.4632 51.6202 76.4632 52.594C76.4632 53.9331 76.0143 54.9983 75.1165 55.7895C74.2187 56.5656 72.9177 56.9536 71.2134 56.9536H64.7996V40.8391H71.0993C72.7123 40.8391 73.9448 41.2043 74.7969 41.9347C75.6643 42.6499 76.098 43.639 76.098 44.902C76.098 45.9215 75.8317 46.7508 75.2991 47.3899C74.7665 48.0138 74.0665 48.4323 73.1992 48.6453ZM67.4016 47.7779H70.62C71.533 47.7779 72.2253 47.5649 72.697 47.1388C73.184 46.7128 73.4274 46.1193 73.4274 45.3585C73.4274 44.6129 73.184 44.027 72.697 43.601C72.2253 43.1749 71.5025 42.9619 70.5287 42.9619H67.4016V47.7779ZM70.6884 54.8081C71.6775 54.8081 72.4384 54.5874 72.9709 54.1461C73.5187 53.6896 73.7926 53.0581 73.7926 52.2517C73.7926 51.4452 73.5187 50.8137 72.9709 50.3572C72.4231 49.9007 71.6547 49.6724 70.6656 49.6724H67.4016V54.8081H70.6884ZM90.5043 44.377V56.9536H87.8794V54.2146C87.5599 55.1428 87.0045 55.8656 86.2132 56.383C85.4219 56.8851 84.5013 57.1362 83.4514 57.1362C81.9906 57.1362 80.8189 56.6645 79.9363 55.7211C79.0538 54.7776 78.6125 53.4309 78.6125 51.681V44.377H81.2145V51.4071C81.2145 52.5484 81.5036 53.4309 82.0819 54.0548C82.6601 54.6635 83.4514 54.9678 84.4557 54.9678C85.4904 54.9678 86.3197 54.6331 86.9436 53.9635C87.5675 53.294 87.8794 52.3201 87.8794 51.0419V44.377H90.5043ZM95.1043 44.377L98.8704 53.6212L102.363 44.377H105.261L97.6607 62.9338H94.7619L97.4781 56.6569L92.1827 44.377H95.1043ZM106.607 40.725C106.607 40.2837 106.759 39.9185 107.064 39.6294C107.368 39.3403 107.771 39.1957 108.273 39.1957C108.776 39.1957 109.179 39.3403 109.483 39.6294C109.803 39.9185 109.963 40.2837 109.963 40.725C109.963 41.1663 109.803 41.5239 109.483 41.7978C109.179 42.0717 108.776 42.2086 108.273 42.2086C107.771 42.2086 107.368 42.0717 107.064 41.7978C106.759 41.5239 106.607 41.1663 106.607 40.725ZM109.574 44.377V56.9536H106.972V44.377H109.574ZM119.753 44.1716C121.214 44.1716 122.386 44.6433 123.268 45.5867C124.151 46.5302 124.592 47.8768 124.592 49.6268V56.9536H121.99V49.9007C121.99 48.7746 121.701 47.9073 121.123 47.2986C120.545 46.6747 119.753 46.3628 118.749 46.3628C117.714 46.3628 116.885 46.6976 116.261 47.3671C115.637 48.0214 115.325 48.9877 115.325 50.2659V56.9536H112.723V44.377H115.325V47.1388C115.66 46.1954 116.223 45.465 117.014 44.9476C117.806 44.4303 118.719 44.1716 119.753 44.1716ZM132.68 44.2172C133.821 44.2172 134.795 44.4987 135.601 45.0618C136.408 45.6248 136.978 46.3704 137.313 47.2986V44.377H139.915V57.0906C139.915 58.2622 139.672 59.297 139.185 60.1948C138.713 61.1078 138.028 61.823 137.131 62.3403C136.233 62.8577 135.168 63.1164 133.935 63.1164C132.17 63.1164 130.74 62.6979 129.644 61.861C128.564 61.0241 127.886 59.8904 127.613 58.4601H130.192C130.405 59.2057 130.816 59.7839 131.424 60.1948C132.033 60.6208 132.809 60.8339 133.752 60.8339C134.787 60.8339 135.639 60.5143 136.309 59.8752C136.978 59.2361 137.313 58.3079 137.313 57.0906V54.032C136.978 54.9602 136.408 55.7058 135.601 56.2689C134.795 56.8319 133.821 57.1134 132.68 57.1134C131.584 57.1134 130.603 56.8547 129.735 56.3373C128.883 55.82 128.214 55.0744 127.727 54.1005C127.24 53.1266 126.996 51.9778 126.996 50.6539C126.996 49.3453 127.24 48.204 127.727 47.2301C128.214 46.2563 128.883 45.5107 129.735 44.9933C130.603 44.4759 131.584 44.2172 132.68 44.2172ZM133.479 46.4997C132.322 46.4997 131.394 46.8725 130.694 47.6182C130.009 48.3486 129.667 49.3605 129.667 50.6539C129.667 51.9473 130.009 52.9668 130.694 53.7125C131.394 54.4429 132.322 54.8081 133.479 54.8081C134.209 54.8081 134.863 54.6407 135.442 54.3059C136.02 53.9559 136.476 53.469 136.811 52.8451C137.146 52.2212 137.313 51.4908 137.313 50.6539C137.313 49.8322 137.146 49.1094 136.811 48.4855C136.476 47.8464 136.02 47.3595 135.442 47.0247C134.863 46.6747 134.209 46.4997 133.479 46.4997Z" fill="#F5F5F8"/>
<path d="M197.531 37.4257C200.057 37.4257 202.436 36.9413 204.668 35.9727C206.9 35.016 208.86 33.687 210.548 31.9859C212.248 30.2849 213.582 28.324 214.551 26.1032C215.519 23.8706 216.003 21.4845 216.003 18.9447C216.003 16.4168 215.519 14.0424 214.551 11.8217C213.582 9.58904 212.248 7.62225 210.548 5.92122C208.86 4.22016 206.894 2.89123 204.65 1.93442C202.419 0.965766 200.04 0.481445 197.513 0.481445C194.986 0.481445 192.607 0.965766 190.376 1.93442C188.144 2.89123 186.178 4.22016 184.478 5.92122C182.79 7.62225 181.461 9.58904 180.493 11.8217C179.537 14.0424 179.059 16.4168 179.059 18.9447C179.059 21.4845 179.537 23.8706 180.493 26.1032C181.461 28.324 182.796 30.2849 184.496 31.9859C186.196 33.687 188.162 35.016 190.393 35.9727C192.625 36.9413 195.004 37.4257 197.531 37.4257ZM195.565 27.7334C195.199 27.7334 194.868 27.6565 194.573 27.503C194.278 27.3376 194 27.0896 193.741 26.7588L189.472 21.6203C189.307 21.3959 189.177 21.1773 189.083 20.9647C189 20.7403 188.959 20.5099 188.959 20.2737C188.959 19.7775 189.13 19.3582 189.472 19.0156C189.815 18.6612 190.234 18.484 190.73 18.484C191.025 18.484 191.291 18.549 191.527 18.6789C191.763 18.7971 191.999 19.0038 192.235 19.2991L195.512 23.41L202.649 11.9989C203.074 11.3255 203.6 10.9889 204.225 10.9889C204.698 10.9889 205.117 11.1424 205.483 11.4496C205.861 11.7567 206.05 12.1583 206.05 12.6545C206.05 12.8789 206.002 13.1033 205.908 13.3278C205.825 13.5522 205.719 13.7649 205.589 13.9657L197.318 26.7588C197.106 27.0659 196.846 27.3081 196.539 27.4854C196.244 27.6507 195.919 27.7334 195.565 27.7334Z" fill="#0D9811"/>
</svg>
