<svg width="230" height="43" viewBox="0 0 230 43" fill="none" xmlns="http://www.w3.org/2000/svg">
<path d="M212.284 35.4379C211.81 35.4379 211.426 35.0538 211.426 34.58V16.3684C211.426 15.8946 211.81 15.5106 212.284 15.5106H215.722C216.184 15.5106 216.562 15.8755 216.579 16.3366L216.689 19.3018C216.695 19.4688 216.598 19.6223 216.445 19.6881C216.129 19.8236 215.812 19.5309 215.961 19.2209C216.243 18.6326 216.627 18.0865 217.114 17.5824C217.842 16.829 218.709 16.2263 219.713 15.7742C220.718 15.3222 221.772 15.0962 222.877 15.0962C224.384 15.0962 225.64 15.3975 226.644 16.0003C227.674 16.603 228.44 17.5196 228.942 18.7502C229.47 19.9556 229.733 21.4498 229.733 23.2329V34.58C229.733 35.0538 229.349 35.4379 228.875 35.4379H225.242C224.768 35.4379 224.384 35.0538 224.384 34.58V23.6472C224.384 22.7432 224.259 21.9898 224.007 21.387C223.756 20.7843 223.367 20.3448 222.84 20.0686C222.337 19.7672 221.71 19.6417 220.956 19.6919C220.354 19.6919 219.788 19.7924 219.261 19.9933C218.759 20.1691 218.319 20.4327 217.943 20.7843C217.591 21.1359 217.302 21.5377 217.076 21.9898C216.875 22.4418 216.775 22.9315 216.775 23.4589V34.58C216.775 35.0538 216.391 35.4379 215.917 35.4379H214.138C213.56 35.4379 213.046 35.4379 212.594 35.4379C212.487 35.4379 212.383 35.4379 212.284 35.4379Z" fill="#7715E0"/>
<path d="M185.594 35.4378C185.225 35.4378 184.897 35.202 184.78 34.8522L178.687 16.6405C178.501 16.0849 178.914 15.5105 179.5 15.5105H183.245C183.624 15.5105 183.958 15.759 184.067 16.1218L187.822 28.6366C187.883 28.8403 187.713 29.039 187.502 29.0103C187.311 28.9842 187.197 28.784 187.272 28.6066L191.384 18.8967C191.519 18.5795 191.83 18.3734 192.174 18.3734H194.21C194.551 18.3734 194.859 18.5745 194.996 18.8859L199.263 28.5907C199.35 28.7894 199.216 29.015 199 29.0331C198.778 29.0516 198.607 28.8406 198.671 28.6271L202.422 16.1218C202.531 15.759 202.865 15.5105 203.244 15.5105H206.983C207.57 15.5105 207.984 16.0882 207.795 16.6447L201.598 34.8563C201.48 35.204 201.153 35.4378 200.786 35.4378H198.093C197.746 35.4378 197.434 35.2291 197.301 34.909L192.944 24.4182C192.885 24.276 193.001 24.1229 193.154 24.1421C193.285 24.1584 193.365 24.2948 193.315 24.4171L189.036 34.9041C188.905 35.2268 188.591 35.4378 188.242 35.4378H185.594Z" fill="#7715E0"/>
<path d="M166.62 35.8146C164.586 35.8146 162.765 35.3751 161.158 34.4961C159.576 33.592 158.32 32.3615 157.391 30.8045C156.487 29.2475 156.035 27.4644 156.035 25.4554C156.035 23.4463 156.487 21.6758 157.391 20.1439C158.32 18.5869 159.576 17.3564 161.158 16.4523C162.765 15.5482 164.586 15.0962 166.62 15.0962C168.629 15.0962 170.425 15.5482 172.007 16.4523C173.614 17.3564 174.87 18.5869 175.774 20.1439C176.678 21.6758 177.13 23.4463 177.13 25.4554C177.13 27.4644 176.678 29.2475 175.774 30.8045C174.87 32.3615 173.614 33.592 172.007 34.4961C170.425 35.3751 168.629 35.8146 166.62 35.8146ZM166.62 31.1435C167.6 31.1435 168.479 30.9049 169.257 30.4278C170.036 29.9255 170.638 29.2475 171.065 28.3936C171.517 27.5147 171.743 26.5352 171.743 25.4554C171.743 24.3504 171.517 23.371 171.065 22.5171C170.638 21.6382 170.036 20.9601 169.257 20.483C168.479 19.9807 167.6 19.7296 166.62 19.7296C165.616 19.7296 164.724 19.9807 163.946 20.483C163.167 20.9852 162.552 21.6633 162.1 22.5171C161.648 23.371 161.434 24.3504 161.46 25.4554C161.434 26.5352 161.648 27.5147 162.1 28.3936C162.552 29.2475 163.167 29.9255 163.946 30.4278C164.724 30.9049 165.616 31.1435 166.62 31.1435Z" fill="#7715E0"/>
<path d="M130.198 35.4377C129.724 35.4377 129.34 35.0536 129.34 34.5799V9.92668C129.34 9.45291 129.724 9.06885 130.198 9.06885H140.151C142.085 9.06885 143.83 9.39532 145.387 10.0483C146.969 10.6761 148.325 11.5802 149.455 12.7605C150.611 13.9157 151.49 15.2969 152.092 16.9042C152.695 18.5114 152.996 20.2944 152.996 22.2533C152.996 24.187 152.695 25.97 152.092 27.6024C151.49 29.2096 150.623 30.6034 149.493 31.7837C148.363 32.9389 147.007 33.843 145.425 34.4959C143.843 35.1238 142.085 35.4377 140.151 35.4377H130.198ZM134.99 30.5683C134.99 30.7862 134.704 30.8671 134.59 30.6816C134.502 30.5376 134.605 30.3523 134.774 30.3523H139.963C141.093 30.3523 142.11 30.1639 143.014 29.7872C143.918 29.3854 144.684 28.8455 145.312 28.1674C145.965 27.4642 146.454 26.6104 146.781 25.6059C147.107 24.6013 147.271 23.4838 147.271 22.2533C147.271 21.0227 147.107 19.9177 146.781 18.9383C146.454 17.9338 145.965 17.08 145.312 16.3768C144.684 15.6736 143.918 15.1337 143.014 14.757C142.11 14.3552 141.093 14.1543 139.963 14.1543H134.757C134.562 14.1543 134.453 13.929 134.574 13.7761C134.711 13.6026 134.99 13.6997 134.99 13.9209V30.5683Z" fill="#7715E0"/>
<path d="M119.318 35.4378C119.038 35.4378 118.776 35.3013 118.615 35.0722L113.936 28.3936L112.43 26.284L105.395 16.8823C104.971 16.3166 105.375 15.5105 106.082 15.5105H110.403C110.682 15.5105 110.943 15.6457 111.104 15.873L115.669 22.3287L117.327 24.5889L124.275 34.073C124.69 34.6397 124.286 35.4378 123.583 35.4378H119.318ZM105.981 35.4378C105.28 35.4378 104.875 34.641 105.289 34.0741L111.595 25.4361C111.924 24.9861 112.587 24.9638 112.945 25.3907L114.78 27.578C115.018 27.8623 115.047 28.2676 114.851 28.5826L110.836 35.0333C110.679 35.2849 110.404 35.4378 110.107 35.4378H105.981ZM117.751 25.5451C117.424 26.0106 116.744 26.0357 116.384 25.5955L114.611 23.4254C114.386 23.1505 114.354 22.7657 114.53 22.4574L118.248 15.9431C118.4 15.6756 118.685 15.5105 118.993 15.5105H123.136C123.831 15.5105 124.237 16.2922 123.839 16.8607L117.751 25.5451Z" fill="#7715E0"/>
<path d="M93.7892 35.8146C91.6294 35.8146 89.746 35.3751 88.1387 34.4961C86.5315 33.6172 85.2758 32.4117 84.3717 30.8798C83.4677 29.3479 83.0156 27.59 83.0156 25.6061C83.0156 24.0742 83.2668 22.6678 83.769 21.387C84.2713 20.1063 84.9745 19.0013 85.8785 18.0721C86.7826 17.1178 87.8499 16.3895 89.0805 15.8873C90.3361 15.3599 91.6922 15.0962 93.1488 15.0962C94.5049 15.0962 95.7606 15.3473 96.9158 15.8496C98.071 16.3267 99.0629 17.0173 99.8917 17.9214C100.746 18.8004 101.398 19.8426 101.851 21.048C102.303 22.2534 102.503 23.5719 102.453 25.0033L102.435 25.8225C102.424 26.2885 102.043 26.6608 101.577 26.6608H87.0664C86.6771 26.6608 86.3366 26.3986 86.2371 26.0222L85.8242 24.4606C85.6804 23.9165 86.0907 23.3835 86.6536 23.3835H97.5923C97.7534 23.3835 97.8389 23.574 97.7319 23.6944C97.6178 23.8228 97.4055 23.7421 97.4055 23.5703V23.2329C97.3552 22.5548 97.1292 21.9395 96.7274 21.387C96.3507 20.8346 95.861 20.4076 95.2583 20.1063C94.6556 19.8049 93.9775 19.6542 93.2241 19.6542C92.1191 19.6542 91.1774 19.8677 90.3989 20.2946C89.6455 20.7215 89.0679 21.3494 88.6661 22.1781C88.2643 23.0068 88.0634 24.0114 88.0634 25.1917C88.0634 26.3971 88.3145 27.4393 88.8168 28.3183C89.3441 29.1972 90.0724 29.8878 91.0016 30.3901C91.9559 30.8673 93.0735 31.1058 94.3542 31.1058C95.2332 31.1058 96.0368 30.9677 96.7651 30.6915C97.276 30.4977 97.8117 30.205 98.3721 29.8134C98.7782 29.5296 99.3448 29.6011 99.6332 30.0041L101.215 32.2137C101.469 32.5694 101.418 33.0627 101.073 33.3321C100.507 33.7747 99.8995 34.1627 99.2513 34.4961C98.3723 34.923 97.4683 35.2495 96.5391 35.4755C95.6099 35.7015 94.6933 35.8146 93.7892 35.8146Z" fill="#7715E0"/>
<path d="M74.7797 35.4376C74.3059 35.4376 73.9219 35.0536 73.9219 34.5798V8.41984C73.9219 7.94607 74.3059 7.56201 74.7797 7.56201H78.4132C78.8869 7.56201 79.271 7.94607 79.271 8.41984V34.5798C79.271 35.0536 78.8869 35.4376 78.4132 35.4376H74.7797Z" fill="#7715E0"/>
<path d="M52.393 35.4377C51.9192 35.4377 51.5352 35.0536 51.5352 34.5799V9.92668C51.5352 9.45291 51.9192 9.06885 52.393 9.06885H56.3278C56.8016 9.06885 57.1856 9.45291 57.1856 9.92668V34.5799C57.1856 35.0536 56.8016 35.4377 56.3278 35.4377H52.393ZM54.9922 24.9655C54.5184 24.9655 54.1344 24.5814 54.1344 24.1077V20.9639C54.1344 20.4902 54.5184 20.1061 54.9922 20.1061H66.913C67.3868 20.1061 67.7708 20.4902 67.7708 20.9639V24.1077C67.7708 24.5814 67.3868 24.9655 66.913 24.9655H54.9922ZM54.9922 14.1543C54.5184 14.1543 54.1344 13.7702 54.1344 13.2964V9.92668C54.1344 9.45291 54.5184 9.06885 54.9922 9.06885H68.4951C68.9689 9.06885 69.3529 9.45291 69.3529 9.92668V13.2964C69.3529 13.7702 68.9689 14.1543 68.4951 14.1543H54.9922Z" fill="#7715E0"/>
<path d="M0.260731 2.20059C0.260731 1.29072 1.12616 0.630077 2.00384 0.869949L33.4256 9.45758C34.0254 9.6215 34.4414 10.1664 34.4414 10.7882L34.4414 25.9558C34.4414 28.4624 34.0182 30.7248 33.1718 32.7431C32.358 34.794 31.1861 36.5518 29.6561 38.0167C28.1587 39.5141 26.3683 40.6535 24.2849 41.4348C22.2015 42.216 19.8902 42.6067 17.3511 42.6067C14.8445 42.6067 12.5332 42.216 10.4173 41.4348C8.33388 40.6535 6.52719 39.5304 4.99719 38.0655C3.49975 36.6007 2.32785 34.8428 1.48147 32.792C0.667641 30.7411 0.260731 28.4624 0.260731 25.9558V2.20059ZM7.44961 18.6378C7.0759 18.8952 6.85271 19.32 6.85271 19.7738V25.7117C6.85271 27.1765 7.09686 28.495 7.58516 29.6669C8.10601 30.8388 8.80589 31.8316 9.68482 32.6455C10.5963 33.4918 11.7031 34.1266 13.0052 34.5498C14.3074 34.973 15.756 35.1846 17.3511 35.1846C18.9462 35.1846 20.3785 34.973 21.6481 34.5498C22.9502 34.1266 24.057 33.4918 24.9685 32.6455C25.88 31.8316 26.5798 30.8388 27.0681 29.6669C27.589 28.495 27.8494 27.1765 27.8494 25.7117L27.8494 19.7738C27.8494 19.32 27.6262 18.8952 27.2525 18.6378L18.1336 12.356C17.6624 12.0314 17.0397 12.0314 16.5685 12.356L7.44961 18.6378Z" fill="#7715E0"/>
</svg>
