<svg width="217" height="79" viewBox="0 0 217 79" fill="none" xmlns="http://www.w3.org/2000/svg">
<rect x="1.20913" y="19.4626" width="202.968" height="58.9685" rx="29.4842" fill="white"/>
<rect x="1.20913" y="19.4626" width="202.968" height="58.9685" rx="29.4842" stroke="#B8A6DC" stroke-width="1.03155"/>
<path d="M70.9873 56.4468L66.9393 50.1108H64.7613V56.4468H62.7593V40.9368H67.8633C69.6233 40.9368 70.9433 41.3621 71.8233 42.2128C72.7033 43.0488 73.1433 44.1634 73.1433 45.5568C73.1433 46.8181 72.7913 47.8374 72.0873 48.6148C71.3833 49.3774 70.364 49.8541 69.0293 50.0448L73.2533 56.4468H70.9873ZM64.7613 48.6588H67.6873C69.9607 48.6588 71.0973 47.6614 71.0973 45.6668C71.0973 43.6721 69.9607 42.6748 67.6873 42.6748H64.7613V48.6588ZM86.6955 49.7368C86.6955 50.1621 86.6662 50.5288 86.6075 50.8368H76.9495C76.9935 52.2154 77.3822 53.2494 78.1155 53.9388C78.8635 54.6281 79.7728 54.9728 80.8435 54.9728C81.8115 54.9728 82.6182 54.7308 83.2635 54.2468C83.9235 53.7481 84.3268 53.0881 84.4735 52.2668H86.6075C86.4608 53.1028 86.1308 53.8508 85.6175 54.5108C85.1188 55.1708 84.4662 55.6841 83.6595 56.0508C82.8528 56.4174 81.9435 56.6008 80.9315 56.6008C79.7728 56.6008 78.7462 56.3514 77.8515 55.8528C76.9568 55.3541 76.2528 54.6428 75.7395 53.7188C75.2408 52.7801 74.9915 51.6801 74.9915 50.4188C74.9915 49.1574 75.2408 48.0574 75.7395 47.1188C76.2528 46.1801 76.9568 45.4614 77.8515 44.9628C78.7462 44.4641 79.7728 44.2148 80.9315 44.2148C82.1048 44.2148 83.1242 44.4641 83.9895 44.9628C84.8695 45.4614 85.5368 46.1288 85.9915 46.9648C86.4608 47.8008 86.6955 48.7248 86.6955 49.7368ZM84.6715 49.8688C84.7155 48.9741 84.5688 48.2261 84.2315 47.6248C83.8942 47.0234 83.4322 46.5761 82.8455 46.2828C82.2588 45.9894 81.6208 45.8428 80.9315 45.8428C79.8315 45.8428 78.9075 46.1874 78.1595 46.8768C77.4115 47.5514 77.0082 48.5488 76.9495 49.8688H84.6715ZM95.672 44.1708C97.08 44.1708 98.2167 44.6254 99.082 45.5348C99.9473 46.4294 100.38 47.7274 100.38 49.4288V56.4468H98.378V49.6048C98.378 48.4021 98.07 47.4781 97.454 46.8328C96.838 46.1874 96.002 45.8648 94.946 45.8648C93.846 45.8648 92.966 46.2241 92.306 46.9428C91.646 47.6468 91.316 48.6808 91.316 50.0448V56.4468H89.314V44.3688H91.316V47.2288C91.624 46.2461 92.1667 45.4908 92.944 44.9628C93.736 44.4348 94.6453 44.1708 95.672 44.1708ZM109.215 54.6868V56.4468H107.719C106.487 56.4468 105.563 56.1534 104.947 55.5668C104.345 54.9801 104.045 53.9974 104.045 52.6188V46.1068H102.241V44.3688H104.045V41.3548H106.069V44.3688H109.193V46.1068H106.069V52.6628C106.069 53.4401 106.208 53.9754 106.487 54.2688C106.78 54.5474 107.279 54.6868 107.983 54.6868H109.215ZM111.306 40.8268C111.306 40.4601 111.43 40.1668 111.68 39.9468C111.929 39.7121 112.259 39.5948 112.67 39.5948C113.08 39.5948 113.41 39.7121 113.66 39.9468C113.909 40.1668 114.034 40.4601 114.034 40.8268C114.034 41.1934 113.909 41.4941 113.66 41.7288C113.41 41.9488 113.08 42.0588 112.67 42.0588C112.259 42.0588 111.929 41.9488 111.68 41.7288C111.43 41.4941 111.306 41.1934 111.306 40.8268ZM113.66 44.3688V56.4468H111.658V44.3688H113.66ZM123.236 44.1708C124.644 44.1708 125.781 44.6254 126.646 45.5348C127.512 46.4294 127.944 47.7274 127.944 49.4288V56.4468H125.942V49.6048C125.942 48.4021 125.634 47.4781 125.018 46.8328C124.402 46.1874 123.566 45.8648 122.51 45.8648C121.41 45.8648 120.53 46.2241 119.87 46.9428C119.21 47.6468 118.88 48.6808 118.88 50.0448V56.4468H116.878V44.3688H118.88V47.2288C119.188 46.2461 119.731 45.4908 120.508 44.9628C121.3 44.4348 122.21 44.1708 123.236 44.1708ZM135.965 44.2148C137.139 44.2148 138.129 44.5081 138.935 45.0948C139.757 45.6814 140.329 46.4661 140.651 47.4488V44.3688H142.653V56.6448C142.653 57.7594 142.419 58.7494 141.949 59.6148C141.48 60.4801 140.82 61.1548 139.969 61.6388C139.119 62.1228 138.129 62.3648 136.999 62.3648C135.371 62.3648 134.044 61.9688 133.017 61.1768C131.991 60.3994 131.338 59.3434 131.059 58.0088H133.039C133.274 58.8154 133.714 59.4461 134.359 59.9008C135.019 60.3701 135.863 60.6048 136.889 60.6048C137.975 60.6048 138.869 60.2528 139.573 59.5488C140.292 58.8594 140.651 57.8914 140.651 56.6448V53.3668C140.329 54.3494 139.757 55.1341 138.935 55.7208C138.129 56.3074 137.139 56.6008 135.965 56.6008C134.895 56.6008 133.941 56.3514 133.105 55.8528C132.269 55.3541 131.609 54.6428 131.125 53.7188C130.656 52.7801 130.421 51.6801 130.421 50.4188C130.421 49.1574 130.656 48.0574 131.125 47.1188C131.609 46.1801 132.269 45.4614 133.105 44.9628C133.941 44.4641 134.895 44.2148 135.965 44.2148ZM136.537 45.9968C135.305 45.9968 134.315 46.3928 133.567 47.1848C132.834 47.9621 132.467 49.0401 132.467 50.4188C132.467 51.7974 132.834 52.8828 133.567 53.6748C134.315 54.4521 135.305 54.8408 136.537 54.8408C137.329 54.8408 138.033 54.6574 138.649 54.2908C139.28 53.9241 139.771 53.4108 140.123 52.7508C140.475 52.0761 140.651 51.2988 140.651 50.4188C140.651 49.5388 140.475 48.7614 140.123 48.0868C139.771 47.4121 139.28 46.8988 138.649 46.5468C138.033 46.1801 137.329 45.9968 136.537 45.9968Z" fill="#6C6E72"/>
<path d="M197.919 37.4189C200.446 37.4189 202.825 36.9345 205.057 35.9658C207.288 35.0092 209.248 33.6801 210.937 31.9791C212.637 30.278 213.971 28.3172 214.939 26.0964C215.907 23.8638 216.392 21.4776 216.392 18.9379C216.392 16.41 215.907 14.0356 214.939 11.8148C213.971 9.58221 212.637 7.61541 210.937 5.91438C209.248 4.21333 207.282 2.88439 205.039 1.92758C202.808 0.95893 200.428 0.474609 197.902 0.474609C195.375 0.474609 192.996 0.95893 190.764 1.92758C188.533 2.88439 186.567 4.21333 184.867 5.91438C183.178 7.61541 181.85 9.58221 180.882 11.8148C179.925 14.0356 179.447 16.41 179.447 18.9379C179.447 21.4776 179.925 23.8638 180.882 26.0964C181.85 28.3172 183.184 30.278 184.884 31.9791C186.585 33.6801 188.55 35.0092 190.782 35.9658C193.014 36.9345 195.393 37.4189 197.919 37.4189ZM195.954 27.7266C195.588 27.7266 195.257 27.6497 194.962 27.4961C194.667 27.3308 194.389 27.0828 194.129 26.7519L189.861 21.6135C189.696 21.389 189.566 21.1705 189.471 20.9579C189.389 20.7334 189.347 20.5031 189.347 20.2668C189.347 19.7707 189.519 19.3513 189.861 19.0088C190.204 18.6544 190.623 18.4772 191.119 18.4772C191.414 18.4772 191.679 18.5422 191.916 18.6721C192.152 18.7902 192.388 18.997 192.624 19.2923L195.9 23.4032L203.038 11.992C203.463 11.3187 203.988 10.982 204.614 10.982C205.086 10.982 205.505 11.1356 205.871 11.4427C206.249 11.7498 206.438 12.1515 206.438 12.6476C206.438 12.8721 206.391 13.0965 206.297 13.3209C206.214 13.5454 206.108 13.758 205.978 13.9588L197.707 26.7519C197.494 27.059 197.235 27.3012 196.928 27.4786C196.632 27.6439 196.308 27.7266 195.954 27.7266Z" fill="#0D9811"/>
</svg>
