<svg width="205" height="61" viewBox="0 0 205 61" fill="none" xmlns="http://www.w3.org/2000/svg">
<rect x="1.20913" y="1.46255" width="202.968" height="58.9685" rx="29.4842" fill="white"/>
<rect x="1.20913" y="1.46255" width="202.968" height="58.9685" rx="29.4842" stroke="#B8A6DC" stroke-width="1.03155"/>
<path d="M70.9873 38.4468L66.9393 32.1108H64.7613V38.4468H62.7593V22.9368H67.8633C69.6233 22.9368 70.9433 23.3621 71.8233 24.2128C72.7033 25.0488 73.1433 26.1634 73.1433 27.5568C73.1433 28.8181 72.7913 29.8374 72.0873 30.6148C71.3833 31.3774 70.364 31.8541 69.0293 32.0448L73.2533 38.4468H70.9873ZM64.7613 30.6588H67.6873C69.9607 30.6588 71.0973 29.6614 71.0973 27.6668C71.0973 25.6721 69.9607 24.6748 67.6873 24.6748H64.7613V30.6588ZM86.6955 31.7368C86.6955 32.1621 86.6662 32.5288 86.6075 32.8368H76.9495C76.9935 34.2154 77.3822 35.2494 78.1155 35.9388C78.8635 36.6281 79.7728 36.9728 80.8435 36.9728C81.8115 36.9728 82.6182 36.7308 83.2635 36.2468C83.9235 35.7481 84.3268 35.0881 84.4735 34.2668H86.6075C86.4608 35.1028 86.1308 35.8508 85.6175 36.5108C85.1188 37.1708 84.4662 37.6841 83.6595 38.0508C82.8528 38.4174 81.9435 38.6008 80.9315 38.6008C79.7728 38.6008 78.7462 38.3514 77.8515 37.8528C76.9568 37.3541 76.2528 36.6428 75.7395 35.7188C75.2408 34.7801 74.9915 33.6801 74.9915 32.4188C74.9915 31.1574 75.2408 30.0574 75.7395 29.1188C76.2528 28.1801 76.9568 27.4614 77.8515 26.9628C78.7462 26.4641 79.7728 26.2148 80.9315 26.2148C82.1048 26.2148 83.1242 26.4641 83.9895 26.9628C84.8695 27.4614 85.5368 28.1288 85.9915 28.9648C86.4608 29.8008 86.6955 30.7248 86.6955 31.7368ZM84.6715 31.8688C84.7155 30.9741 84.5688 30.2261 84.2315 29.6248C83.8942 29.0234 83.4322 28.5761 82.8455 28.2828C82.2588 27.9894 81.6208 27.8428 80.9315 27.8428C79.8315 27.8428 78.9075 28.1874 78.1595 28.8768C77.4115 29.5514 77.0082 30.5488 76.9495 31.8688H84.6715ZM95.672 26.1708C97.08 26.1708 98.2167 26.6254 99.082 27.5348C99.9473 28.4294 100.38 29.7274 100.38 31.4288V38.4468H98.378V31.6048C98.378 30.4021 98.07 29.4781 97.454 28.8328C96.838 28.1874 96.002 27.8648 94.946 27.8648C93.846 27.8648 92.966 28.2241 92.306 28.9428C91.646 29.6468 91.316 30.6808 91.316 32.0448V38.4468H89.314V26.3688H91.316V29.2288C91.624 28.2461 92.1667 27.4908 92.944 26.9628C93.736 26.4348 94.6453 26.1708 95.672 26.1708ZM109.215 36.6868V38.4468H107.719C106.487 38.4468 105.563 38.1534 104.947 37.5668C104.345 36.9801 104.045 35.9974 104.045 34.6188V28.1068H102.241V26.3688H104.045V23.3548H106.069V26.3688H109.193V28.1068H106.069V34.6628C106.069 35.4401 106.208 35.9754 106.487 36.2688C106.78 36.5474 107.279 36.6868 107.983 36.6868H109.215ZM111.306 22.8268C111.306 22.4601 111.43 22.1668 111.68 21.9468C111.929 21.7121 112.259 21.5948 112.67 21.5948C113.08 21.5948 113.41 21.7121 113.66 21.9468C113.909 22.1668 114.034 22.4601 114.034 22.8268C114.034 23.1934 113.909 23.4941 113.66 23.7288C113.41 23.9488 113.08 24.0588 112.67 24.0588C112.259 24.0588 111.929 23.9488 111.68 23.7288C111.43 23.4941 111.306 23.1934 111.306 22.8268ZM113.66 26.3688V38.4468H111.658V26.3688H113.66ZM123.236 26.1708C124.644 26.1708 125.781 26.6254 126.646 27.5348C127.512 28.4294 127.944 29.7274 127.944 31.4288V38.4468H125.942V31.6048C125.942 30.4021 125.634 29.4781 125.018 28.8328C124.402 28.1874 123.566 27.8648 122.51 27.8648C121.41 27.8648 120.53 28.2241 119.87 28.9428C119.21 29.6468 118.88 30.6808 118.88 32.0448V38.4468H116.878V26.3688H118.88V29.2288C119.188 28.2461 119.731 27.4908 120.508 26.9628C121.3 26.4348 122.21 26.1708 123.236 26.1708ZM135.965 26.2148C137.139 26.2148 138.129 26.5081 138.935 27.0948C139.757 27.6814 140.329 28.4661 140.651 29.4488V26.3688H142.653V38.6448C142.653 39.7594 142.419 40.7494 141.949 41.6148C141.48 42.4801 140.82 43.1548 139.969 43.6388C139.119 44.1228 138.129 44.3648 136.999 44.3648C135.371 44.3648 134.044 43.9688 133.017 43.1768C131.991 42.3994 131.338 41.3434 131.059 40.0088H133.039C133.274 40.8154 133.714 41.4461 134.359 41.9008C135.019 42.3701 135.863 42.6048 136.889 42.6048C137.975 42.6048 138.869 42.2528 139.573 41.5488C140.292 40.8594 140.651 39.8914 140.651 38.6448V35.3668C140.329 36.3494 139.757 37.1341 138.935 37.7208C138.129 38.3074 137.139 38.6008 135.965 38.6008C134.895 38.6008 133.941 38.3514 133.105 37.8528C132.269 37.3541 131.609 36.6428 131.125 35.7188C130.656 34.7801 130.421 33.6801 130.421 32.4188C130.421 31.1574 130.656 30.0574 131.125 29.1188C131.609 28.1801 132.269 27.4614 133.105 26.9628C133.941 26.4641 134.895 26.2148 135.965 26.2148ZM136.537 27.9968C135.305 27.9968 134.315 28.3928 133.567 29.1848C132.834 29.9621 132.467 31.0401 132.467 32.4188C132.467 33.7974 132.834 34.8828 133.567 35.6748C134.315 36.4521 135.305 36.8408 136.537 36.8408C137.329 36.8408 138.033 36.6574 138.649 36.2908C139.28 35.9241 139.771 35.4108 140.123 34.7508C140.475 34.0761 140.651 33.2988 140.651 32.4188C140.651 31.5388 140.475 30.7614 140.123 30.0868C139.771 29.4121 139.28 28.8988 138.649 28.5468C138.033 28.1801 137.329 27.9968 136.537 27.9968Z" fill="#6C6E72"/>
</svg>
