<svg width="217" height="79" viewBox="0 0 217 79" fill="none" xmlns="http://www.w3.org/2000/svg">
<rect x="1.20913" y="18.9811" width="202.968" height="58.9685" rx="29.4842" fill="white"/>
<rect x="1.20913" y="18.9811" width="202.968" height="58.9685" rx="29.4842" stroke="#B8A6DC" stroke-width="1.03155"/>
<path d="M78.6836 51.9393C78.6836 52.6727 78.5076 53.3547 78.1556 53.9853C77.8036 54.616 77.2683 55.1293 76.5496 55.5253C75.831 55.9213 74.9436 56.1193 73.8876 56.1193C72.861 56.1193 71.9443 55.936 71.1376 55.5693C70.3456 55.188 69.7076 54.6747 69.2236 54.0293C68.7543 53.3693 68.483 52.6213 68.4096 51.7853H70.5436C70.5876 52.2253 70.7343 52.658 70.9836 53.0833C71.2476 53.494 71.6143 53.8387 72.0836 54.1173C72.5676 54.3813 73.147 54.5133 73.8216 54.5133C74.7016 54.5133 75.3763 54.2787 75.8456 53.8093C76.315 53.34 76.5496 52.7387 76.5496 52.0053C76.5496 51.3747 76.381 50.8613 76.0436 50.4653C75.721 50.0693 75.3176 49.7613 74.8336 49.5413C74.3496 49.3067 73.6896 49.0573 72.8536 48.7933C71.871 48.4707 71.079 48.17 70.4776 47.8913C69.891 47.598 69.385 47.1653 68.9596 46.5933C68.549 46.0213 68.3436 45.266 68.3436 44.3273C68.3436 43.5207 68.5343 42.8093 68.9156 42.1933C69.3116 41.5773 69.869 41.1007 70.5876 40.7633C71.321 40.426 72.179 40.2573 73.1616 40.2573C74.687 40.2573 75.897 40.6313 76.7916 41.3793C77.6863 42.1127 78.207 43.0513 78.3536 44.1953H76.1976C76.0803 43.5793 75.765 43.0367 75.2516 42.5673C74.7383 42.098 74.0416 41.8633 73.1616 41.8633C72.355 41.8633 71.7096 42.076 71.2256 42.5013C70.7416 42.912 70.4996 43.4987 70.4996 44.2613C70.4996 44.8627 70.6536 45.354 70.9616 45.7353C71.2843 46.102 71.6803 46.3953 72.1496 46.6153C72.619 46.8207 73.2643 47.0553 74.0856 47.3193C75.083 47.642 75.8823 47.95 76.4836 48.2433C77.0996 48.5367 77.6203 48.984 78.0456 49.5853C78.471 50.172 78.6836 50.9567 78.6836 51.9393ZM92.4855 49.2553C92.4855 49.6807 92.4562 50.0473 92.3975 50.3553H82.7395C82.7835 51.734 83.1722 52.768 83.9055 53.4573C84.6535 54.1467 85.5629 54.4913 86.6335 54.4913C87.6015 54.4913 88.4082 54.2493 89.0535 53.7653C89.7135 53.2667 90.1169 52.6067 90.2635 51.7853H92.3975C92.2509 52.6213 91.9209 53.3693 91.4075 54.0293C90.9089 54.6893 90.2562 55.2027 89.4495 55.5693C88.6429 55.936 87.7335 56.1193 86.7215 56.1193C85.5629 56.1193 84.5362 55.87 83.6415 55.3713C82.7469 54.8727 82.0429 54.1613 81.5295 53.2373C81.0309 52.2987 80.7815 51.1987 80.7815 49.9373C80.7815 48.676 81.0309 47.576 81.5295 46.6373C82.0429 45.6987 82.7469 44.98 83.6415 44.4813C84.5362 43.9827 85.5629 43.7333 86.7215 43.7333C87.8949 43.7333 88.9142 43.9827 89.7795 44.4813C90.6595 44.98 91.3269 45.6473 91.7815 46.4833C92.2509 47.3193 92.4855 48.2433 92.4855 49.2553ZM90.4615 49.3873C90.5055 48.4927 90.3589 47.7447 90.0215 47.1433C89.6842 46.542 89.2222 46.0947 88.6355 45.8013C88.0489 45.508 87.4109 45.3613 86.7215 45.3613C85.6215 45.3613 84.6975 45.706 83.9495 46.3953C83.2015 47.07 82.7982 48.0673 82.7395 49.3873H90.4615ZM97.106 39.6853V55.9653H95.104V39.6853H97.106ZM102.327 39.6853V55.9653H100.325V39.6853H102.327ZM105.193 40.3453C105.193 39.9787 105.318 39.6853 105.567 39.4653C105.817 39.2307 106.147 39.1133 106.557 39.1133C106.968 39.1133 107.298 39.2307 107.547 39.4653C107.797 39.6853 107.921 39.9787 107.921 40.3453C107.921 40.712 107.797 41.0127 107.547 41.2473C107.298 41.4673 106.968 41.5773 106.557 41.5773C106.147 41.5773 105.817 41.4673 105.567 41.2473C105.318 41.0127 105.193 40.712 105.193 40.3453ZM107.547 43.8873V55.9653H105.545V43.8873H107.547ZM117.124 43.6893C118.532 43.6893 119.669 44.144 120.534 45.0533C121.399 45.948 121.832 47.246 121.832 48.9473V55.9653H119.83V49.1233C119.83 47.9207 119.522 46.9967 118.906 46.3513C118.29 45.706 117.454 45.3833 116.398 45.3833C115.298 45.3833 114.418 45.7427 113.758 46.4613C113.098 47.1653 112.768 48.1993 112.768 49.5633V55.9653H110.766V43.8873H112.768V46.7473C113.076 45.7647 113.619 45.0093 114.396 44.4813C115.188 43.9533 116.097 43.6893 117.124 43.6893ZM129.853 43.7333C131.026 43.7333 132.016 44.0267 132.823 44.6133C133.644 45.2 134.216 45.9847 134.539 46.9673V43.8873H136.541V56.1633C136.541 57.278 136.306 58.268 135.837 59.1333C135.368 59.9987 134.708 60.6733 133.857 61.1573C133.006 61.6413 132.016 61.8833 130.887 61.8833C129.259 61.8833 127.932 61.4873 126.905 60.6953C125.878 59.918 125.226 58.862 124.947 57.5273H126.927C127.162 58.334 127.602 58.9647 128.247 59.4193C128.907 59.8887 129.75 60.1233 130.777 60.1233C131.862 60.1233 132.757 59.7713 133.461 59.0673C134.18 58.378 134.539 57.41 134.539 56.1633V52.8853C134.216 53.868 133.644 54.6527 132.823 55.2393C132.016 55.826 131.026 56.1193 129.853 56.1193C128.782 56.1193 127.829 55.87 126.993 55.3713C126.157 54.8727 125.497 54.1613 125.013 53.2373C124.544 52.2987 124.309 51.1987 124.309 49.9373C124.309 48.676 124.544 47.576 125.013 46.6373C125.497 45.6987 126.157 44.98 126.993 44.4813C127.829 43.9827 128.782 43.7333 129.853 43.7333ZM130.425 45.5153C129.193 45.5153 128.203 45.9113 127.455 46.7033C126.722 47.4807 126.355 48.5587 126.355 49.9373C126.355 51.316 126.722 52.4013 127.455 53.1933C128.203 53.9707 129.193 54.3593 130.425 54.3593C131.217 54.3593 131.921 54.176 132.537 53.8093C133.168 53.4427 133.659 52.9293 134.011 52.2693C134.363 51.5947 134.539 50.8173 134.539 49.9373C134.539 49.0573 134.363 48.28 134.011 47.6053C133.659 46.9307 133.168 46.4173 132.537 46.0653C131.921 45.6987 131.217 45.5153 130.425 45.5153Z" fill="#474B51"/>
<path d="M197.91 36.9375C200.436 36.9375 202.815 36.453 205.047 35.4844C207.278 34.5278 209.239 33.1987 210.927 31.4976C212.627 29.7966 213.961 27.8358 214.929 25.615C215.898 23.3824 216.382 20.9962 216.382 18.4564C216.382 15.9285 215.898 13.5542 214.929 11.3334C213.961 9.10076 212.627 7.13396 210.927 5.43293C209.239 3.73188 207.273 2.40295 205.029 1.44614C202.798 0.477485 200.419 -0.00683594 197.892 -0.00683594C195.365 -0.00683594 192.986 0.477485 190.755 1.44614C188.523 2.40295 186.557 3.73188 184.857 5.43293C183.169 7.13396 181.84 9.10076 180.872 11.3334C179.916 13.5542 179.438 15.9285 179.438 18.4564C179.438 20.9962 179.916 23.3824 180.872 25.615C181.84 27.8358 183.174 29.7966 184.875 31.4976C186.575 33.1987 188.541 34.5278 190.772 35.4844C193.004 36.453 195.383 36.9375 197.91 36.9375ZM195.944 27.2451C195.578 27.2451 195.247 27.1682 194.952 27.0147C194.657 26.8494 194.379 26.6014 194.12 26.2705L189.851 21.132C189.686 20.9076 189.556 20.6891 189.462 20.4764C189.379 20.252 189.338 20.0216 189.338 19.7854C189.338 19.2892 189.509 18.8699 189.851 18.5273C190.194 18.1729 190.613 17.9957 191.109 17.9957C191.404 17.9957 191.67 18.0607 191.906 18.1907C192.142 18.3088 192.378 18.5155 192.614 18.8108L195.891 22.9217L203.028 11.5106C203.453 10.8372 203.978 10.5006 204.604 10.5006C205.077 10.5006 205.496 10.6542 205.862 10.9613C206.239 11.2684 206.429 11.67 206.429 12.1662C206.429 12.3906 206.381 12.6151 206.287 12.8395C206.204 13.0639 206.098 13.2766 205.968 13.4774L197.697 26.2705C197.485 26.5776 197.225 26.8198 196.918 26.9971C196.623 27.1625 196.298 27.2451 195.944 27.2451Z" fill="#0D9811"/>
</svg>
