<svg width="205" height="61" viewBox="0 0 205 61" fill="none" xmlns="http://www.w3.org/2000/svg">
<rect x="1.20913" y="0.981106" width="202.968" height="58.9685" rx="29.4842" fill="white"/>
<rect x="1.20913" y="0.981106" width="202.968" height="58.9685" rx="29.4842" stroke="#B8A6DC" stroke-width="1.03155"/>
<path d="M78.6836 33.9393C78.6836 34.6727 78.5076 35.3547 78.1556 35.9853C77.8036 36.616 77.2683 37.1293 76.5496 37.5253C75.831 37.9213 74.9436 38.1193 73.8876 38.1193C72.861 38.1193 71.9443 37.936 71.1376 37.5693C70.3456 37.188 69.7076 36.6747 69.2236 36.0293C68.7543 35.3693 68.483 34.6213 68.4096 33.7853H70.5436C70.5876 34.2253 70.7343 34.658 70.9836 35.0833C71.2476 35.494 71.6143 35.8387 72.0836 36.1173C72.5676 36.3813 73.147 36.5133 73.8216 36.5133C74.7016 36.5133 75.3763 36.2787 75.8456 35.8093C76.315 35.34 76.5496 34.7387 76.5496 34.0053C76.5496 33.3747 76.381 32.8613 76.0436 32.4653C75.721 32.0693 75.3176 31.7613 74.8336 31.5413C74.3496 31.3067 73.6896 31.0573 72.8536 30.7933C71.871 30.4707 71.079 30.17 70.4776 29.8913C69.891 29.598 69.385 29.1653 68.9596 28.5933C68.549 28.0213 68.3436 27.266 68.3436 26.3273C68.3436 25.5207 68.5343 24.8093 68.9156 24.1933C69.3116 23.5773 69.869 23.1007 70.5876 22.7633C71.321 22.426 72.179 22.2573 73.1616 22.2573C74.687 22.2573 75.897 22.6313 76.7916 23.3793C77.6863 24.1127 78.207 25.0513 78.3536 26.1953H76.1976C76.0803 25.5793 75.765 25.0367 75.2516 24.5673C74.7383 24.098 74.0416 23.8633 73.1616 23.8633C72.355 23.8633 71.7096 24.076 71.2256 24.5013C70.7416 24.912 70.4996 25.4987 70.4996 26.2613C70.4996 26.8627 70.6536 27.354 70.9616 27.7353C71.2843 28.102 71.6803 28.3953 72.1496 28.6153C72.619 28.8207 73.2643 29.0553 74.0856 29.3193C75.083 29.642 75.8823 29.95 76.4836 30.2433C77.0996 30.5367 77.6203 30.984 78.0456 31.5853C78.471 32.172 78.6836 32.9567 78.6836 33.9393ZM92.4855 31.2553C92.4855 31.6807 92.4562 32.0473 92.3975 32.3553H82.7395C82.7835 33.734 83.1722 34.768 83.9055 35.4573C84.6535 36.1467 85.5629 36.4913 86.6335 36.4913C87.6015 36.4913 88.4082 36.2493 89.0535 35.7653C89.7135 35.2667 90.1169 34.6067 90.2635 33.7853H92.3975C92.2509 34.6213 91.9209 35.3693 91.4075 36.0293C90.9089 36.6893 90.2562 37.2027 89.4495 37.5693C88.6429 37.936 87.7335 38.1193 86.7215 38.1193C85.5629 38.1193 84.5362 37.87 83.6415 37.3713C82.7469 36.8727 82.0429 36.1613 81.5295 35.2373C81.0309 34.2987 80.7815 33.1987 80.7815 31.9373C80.7815 30.676 81.0309 29.576 81.5295 28.6373C82.0429 27.6987 82.7469 26.98 83.6415 26.4813C84.5362 25.9827 85.5629 25.7333 86.7215 25.7333C87.8949 25.7333 88.9142 25.9827 89.7795 26.4813C90.6595 26.98 91.3269 27.6473 91.7815 28.4833C92.2509 29.3193 92.4855 30.2433 92.4855 31.2553ZM90.4615 31.3873C90.5055 30.4927 90.3589 29.7447 90.0215 29.1433C89.6842 28.542 89.2222 28.0947 88.6355 27.8013C88.0489 27.508 87.4109 27.3613 86.7215 27.3613C85.6215 27.3613 84.6975 27.706 83.9495 28.3953C83.2015 29.07 82.7982 30.0673 82.7395 31.3873H90.4615ZM97.106 21.6853V37.9653H95.104V21.6853H97.106ZM102.327 21.6853V37.9653H100.325V21.6853H102.327ZM105.193 22.3453C105.193 21.9787 105.318 21.6853 105.567 21.4653C105.817 21.2307 106.147 21.1133 106.557 21.1133C106.968 21.1133 107.298 21.2307 107.547 21.4653C107.797 21.6853 107.921 21.9787 107.921 22.3453C107.921 22.712 107.797 23.0127 107.547 23.2473C107.298 23.4673 106.968 23.5773 106.557 23.5773C106.147 23.5773 105.817 23.4673 105.567 23.2473C105.318 23.0127 105.193 22.712 105.193 22.3453ZM107.547 25.8873V37.9653H105.545V25.8873H107.547ZM117.124 25.6893C118.532 25.6893 119.669 26.144 120.534 27.0533C121.399 27.948 121.832 29.246 121.832 30.9473V37.9653H119.83V31.1233C119.83 29.9207 119.522 28.9967 118.906 28.3513C118.29 27.706 117.454 27.3833 116.398 27.3833C115.298 27.3833 114.418 27.7427 113.758 28.4613C113.098 29.1653 112.768 30.1993 112.768 31.5633V37.9653H110.766V25.8873H112.768V28.7473C113.076 27.7647 113.619 27.0093 114.396 26.4813C115.188 25.9533 116.097 25.6893 117.124 25.6893ZM129.853 25.7333C131.026 25.7333 132.016 26.0267 132.823 26.6133C133.644 27.2 134.216 27.9847 134.539 28.9673V25.8873H136.541V38.1633C136.541 39.278 136.306 40.268 135.837 41.1333C135.368 41.9987 134.708 42.6733 133.857 43.1573C133.006 43.6413 132.016 43.8833 130.887 43.8833C129.259 43.8833 127.932 43.4873 126.905 42.6953C125.878 41.918 125.226 40.862 124.947 39.5273H126.927C127.162 40.334 127.602 40.9647 128.247 41.4193C128.907 41.8887 129.75 42.1233 130.777 42.1233C131.862 42.1233 132.757 41.7713 133.461 41.0673C134.18 40.378 134.539 39.41 134.539 38.1633V34.8853C134.216 35.868 133.644 36.6527 132.823 37.2393C132.016 37.826 131.026 38.1193 129.853 38.1193C128.782 38.1193 127.829 37.87 126.993 37.3713C126.157 36.8727 125.497 36.1613 125.013 35.2373C124.544 34.2987 124.309 33.1987 124.309 31.9373C124.309 30.676 124.544 29.576 125.013 28.6373C125.497 27.6987 126.157 26.98 126.993 26.4813C127.829 25.9827 128.782 25.7333 129.853 25.7333ZM130.425 27.5153C129.193 27.5153 128.203 27.9113 127.455 28.7033C126.722 29.4807 126.355 30.5587 126.355 31.9373C126.355 33.316 126.722 34.4013 127.455 35.1933C128.203 35.9707 129.193 36.3593 130.425 36.3593C131.217 36.3593 131.921 36.176 132.537 35.8093C133.168 35.4427 133.659 34.9293 134.011 34.2693C134.363 33.5947 134.539 32.8173 134.539 31.9373C134.539 31.0573 134.363 30.28 134.011 29.6053C133.659 28.9307 133.168 28.4173 132.537 28.0653C131.921 27.6987 131.217 27.5153 130.425 27.5153Z" fill="#474B51"/>
</svg>
