<svg width="38" height="38" viewBox="0 0 38 38" fill="none" xmlns="http://www.w3.org/2000/svg">
<path d="M18.9194 37.4189C21.4461 37.4189 23.8251 36.9345 26.0568 35.9658C28.2883 35.0092 30.2484 33.6801 31.9367 31.9791C33.6369 30.278 34.971 28.3172 35.9392 26.0964C36.9074 23.8638 37.3916 21.4776 37.3916 18.9379C37.3916 16.41 36.9074 14.0356 35.9392 11.8148C34.971 9.58221 33.6369 7.61541 31.9367 5.91438C30.2484 4.21333 28.2825 2.88439 26.039 1.92758C23.8076 0.95893 21.4284 0.474609 18.9017 0.474609C16.375 0.474609 13.9959 0.95893 11.7643 1.92758C9.53279 2.88439 7.56692 4.21333 5.86672 5.91438C4.17829 7.61541 2.85001 9.58221 1.88182 11.8148C0.925452 14.0356 0.447266 16.41 0.447266 18.9379C0.447266 21.4776 0.925452 23.8638 1.88182 26.0964C2.85001 28.3172 4.1842 30.278 5.88443 31.9791C7.58463 33.6801 9.5505 35.0092 11.7821 35.9658C14.0136 36.9345 16.3927 37.4189 18.9194 37.4189ZM16.9535 27.7266C16.5875 27.7266 16.2569 27.6497 15.9617 27.4961C15.6666 27.3308 15.3891 27.0828 15.1293 26.7519L10.8611 21.6135C10.6958 21.389 10.5659 21.1705 10.4715 20.9579C10.3888 20.7334 10.3475 20.5031 10.3475 20.2668C10.3475 19.7707 10.5187 19.3513 10.8611 19.0088C11.2035 18.6544 11.6227 18.4772 12.1185 18.4772C12.4137 18.4772 12.6794 18.5422 12.9155 18.6721C13.1517 18.7902 13.3878 18.997 13.624 19.2923L16.9004 23.4032L24.0378 11.992C24.4629 11.3187 24.9882 10.982 25.6139 10.982C26.0864 10.982 26.5055 11.1356 26.8714 11.4427C27.2492 11.7498 27.4383 12.1515 27.4383 12.6476C27.4383 12.8721 27.391 13.0965 27.2965 13.3209C27.2139 13.5454 27.1077 13.758 26.9777 13.9588L18.7069 26.7519C18.4944 27.059 18.2346 27.3012 17.9276 27.4786C17.6324 27.6439 17.3077 27.7266 16.9535 27.7266Z" fill="#0D9811"/>
</svg>
