<svg width="27" height="33" viewBox="0 0 27 33" fill="none" xmlns="http://www.w3.org/2000/svg">
<path d="M-0.000164032 1.40429C-0.000164032 0.697207 0.672379 0.183807 1.35445 0.370218L25.7731 7.04388C26.2392 7.17127 26.5625 7.59475 26.5625 8.07795L26.5625 19.8651C26.5625 21.813 26.2336 23.5712 25.5759 25.1397C24.9434 26.7334 24.0327 28.0995 22.8437 29.2379C21.68 30.4016 20.2886 31.287 18.6696 31.8942C17.0505 32.5013 15.2544 32.8049 13.2812 32.8049C11.3332 32.8049 9.53709 32.5013 7.89274 31.8942C6.27368 31.287 4.86966 30.4142 3.68066 29.2758C2.51696 28.1374 1.60625 26.7714 0.948502 25.1776C0.316057 23.5838 -0.000164032 21.813 -0.000164032 19.8651L-0.000164032 1.40429ZM5.58649 14.178C5.29608 14.3781 5.12263 14.7082 5.12263 15.0608L5.12263 19.6753C5.12263 20.8137 5.31237 21.8383 5.69183 22.749C6.0966 23.6597 6.6405 24.4313 7.32354 25.0638C8.03187 25.7215 8.892 26.2148 9.90391 26.5437C10.9158 26.8726 12.0416 27.037 13.2812 27.037C14.5208 27.037 15.6339 26.8726 16.6205 26.5437C17.6324 26.2148 18.4925 25.7215 19.2008 25.0638C19.9092 24.4313 20.4531 23.6597 20.8326 22.749C21.2373 21.8383 21.4397 20.8137 21.4397 19.6753V15.0608C21.4397 14.7082 21.2663 14.3781 20.9758 14.178L13.8893 9.29635C13.5231 9.0441 13.0392 9.0441 12.673 9.29635L5.58649 14.178Z" fill="#242629"/>
</svg>
