<svg width="153" height="33" viewBox="0 0 153 33" fill="none" xmlns="http://www.w3.org/2000/svg">
<g id="Logo">
<g id="FlexDown">
<path id="Vector" d="M141.441 25.9209C141.131 25.9209 140.88 25.6694 140.88 25.3593V13.4364C140.88 13.1262 141.131 12.8748 141.441 12.8748H143.693C143.995 12.8748 144.243 13.1137 144.254 13.4156L144.326 15.3569C144.33 15.4662 144.266 15.5667 144.166 15.6098C143.959 15.6985 143.751 15.5069 143.849 15.3039C144.034 14.9188 144.285 14.5612 144.604 14.2312C145.081 13.738 145.648 13.3434 146.305 13.0474C146.963 12.7515 147.654 12.6035 148.377 12.6035C149.364 12.6035 150.186 12.8008 150.843 13.1954C151.517 13.59 152.019 14.1901 152.348 14.9957C152.693 15.7849 152.866 16.7631 152.866 17.9305V25.3593C152.866 25.6694 152.614 25.9209 152.304 25.9209H149.925C149.615 25.9209 149.364 25.6694 149.364 25.3593V18.2017C149.364 17.6099 149.281 17.1166 149.117 16.722C148.953 16.3274 148.698 16.0397 148.352 15.8589C148.024 15.6616 147.613 15.5794 147.119 15.6123C146.725 15.6123 146.355 15.678 146.01 15.8095C145.681 15.9246 145.393 16.0973 145.146 16.3274C144.916 16.5576 144.727 16.8207 144.579 17.1166C144.448 17.4126 144.382 17.7332 144.382 18.0784V25.3593C144.382 25.6694 144.13 25.9209 143.82 25.9209H142.656C142.277 25.9209 141.94 25.9209 141.644 25.9209C141.574 25.9209 141.507 25.9209 141.441 25.9209Z" fill="#242629"/>
<path id="Vector_2" d="M123.964 25.9201C123.722 25.9201 123.508 25.7657 123.431 25.5367L119.442 13.6138C119.32 13.2501 119.591 12.874 119.974 12.874H122.426C122.674 12.874 122.893 13.0367 122.964 13.2743L125.422 21.4675C125.462 21.6008 125.351 21.7309 125.213 21.7121C125.088 21.6951 125.014 21.564 125.063 21.4478L127.755 15.0909C127.843 14.8832 128.046 14.7483 128.272 14.7483H129.605C129.828 14.7483 130.029 14.88 130.119 15.0839L132.913 21.4374C132.97 21.5675 132.882 21.7152 132.741 21.727C132.595 21.7392 132.483 21.601 132.525 21.4612L134.981 13.2743C135.052 13.0367 135.271 12.874 135.519 12.874H137.967C138.352 12.874 138.622 13.2522 138.498 13.6165L134.442 25.5394C134.364 25.767 134.15 25.9201 133.91 25.9201H132.147C131.92 25.9201 131.715 25.7835 131.628 25.5739L128.776 18.7058C128.737 18.6127 128.813 18.5125 128.914 18.525C128.999 18.5357 129.052 18.625 129.019 18.705L126.218 25.5707C126.131 25.782 125.926 25.9201 125.698 25.9201H123.964Z" fill="#242629"/>
<path id="Vector_3" d="M111.544 26.1675C110.212 26.1675 109.02 25.8798 107.968 25.3043C106.932 24.7125 106.11 23.9068 105.502 22.8875C104.91 21.8681 104.614 20.7008 104.614 19.3855C104.614 18.0702 104.91 16.9111 105.502 15.9082C106.11 14.8888 106.932 14.0832 107.968 13.4913C109.02 12.8995 110.212 12.6035 111.544 12.6035C112.859 12.6035 114.035 12.8995 115.07 13.4913C116.123 14.0832 116.945 14.8888 117.537 15.9082C118.128 16.9111 118.424 18.0702 118.424 19.3855C118.424 20.7008 118.128 21.8681 117.537 22.8875C116.945 23.9068 116.123 24.7125 115.07 25.3043C114.035 25.8798 112.859 26.1675 111.544 26.1675ZM111.544 23.1094C112.185 23.1094 112.76 22.9533 113.27 22.6409C113.78 22.312 114.174 21.8681 114.454 21.3091C114.75 20.7337 114.898 20.0925 114.898 19.3855C114.898 18.6621 114.75 18.0209 114.454 17.4619C114.174 16.8864 113.78 16.4425 113.27 16.1302C112.76 15.8013 112.185 15.6369 111.544 15.6369C110.886 15.6369 110.302 15.8013 109.793 16.1302C109.283 16.459 108.88 16.9029 108.584 17.4619C108.288 18.0209 108.149 18.6621 108.165 19.3855C108.149 20.0925 108.288 20.7337 108.584 21.3091C108.88 21.8681 109.283 22.312 109.793 22.6409C110.302 22.9533 110.886 23.1094 111.544 23.1094Z" fill="#242629"/>
<path id="Vector_4" d="M87.7008 25.9215C87.3906 25.9215 87.1392 25.67 87.1392 25.3599V9.21981C87.1392 8.90964 87.3906 8.6582 87.7008 8.6582H94.2171C95.4831 8.6582 96.6257 8.87194 97.6451 9.29941C98.6809 9.71044 99.5687 10.3023 100.309 11.0751C101.065 11.8314 101.64 12.7356 102.035 13.7879C102.429 14.8401 102.627 16.0074 102.627 17.2898C102.627 18.5558 102.429 19.7231 102.035 20.7918C101.64 21.844 101.073 22.7565 100.333 23.5293C99.5934 24.2856 98.7055 24.8774 97.6698 25.3049C96.634 25.716 95.4831 25.9215 94.2171 25.9215H87.7008ZM90.8384 22.7336C90.8384 22.8762 90.6513 22.9292 90.5765 22.8077C90.5185 22.7135 90.5863 22.5921 90.697 22.5921H94.0938C94.8336 22.5921 95.4995 22.4688 96.0914 22.2222C96.6833 21.9591 97.1847 21.6056 97.5958 21.1617C98.0232 20.7014 98.3438 20.1424 98.5576 19.4847C98.7713 18.8271 98.8782 18.0955 98.8782 17.2898C98.8782 16.4842 98.7713 15.7608 98.5576 15.1196C98.3438 14.4619 98.0232 13.9029 97.5958 13.4426C97.1847 12.9822 96.6833 12.6288 96.0914 12.3821C95.4995 12.1191 94.8336 11.9875 94.0938 11.9875H90.6857C90.5579 11.9875 90.4866 11.8401 90.5659 11.7399C90.6558 11.6264 90.8384 11.69 90.8384 11.8348V22.7336Z" fill="#242629"/>
<path id="Vector_5" d="M80.5786 25.9201C80.3954 25.9201 80.2237 25.8308 80.1186 25.6807L77.0556 21.3084L76.0691 19.9273L71.4635 13.7721C71.1864 13.4018 71.4507 12.874 71.9132 12.874H74.7427C74.925 12.874 75.0959 12.9625 75.2012 13.1114L78.1901 17.3378L79.2752 18.8175L83.8242 25.0266C84.096 25.3976 83.831 25.9201 83.3712 25.9201H80.5786ZM71.8476 25.9201C71.3881 25.9201 71.1231 25.3984 71.394 25.0273L75.5229 19.3722C75.7379 19.0776 76.1724 19.063 76.4068 19.3424L77.6078 20.7744C77.7639 20.9605 77.7826 21.2259 77.6543 21.4321L75.0256 25.6553C74.923 25.82 74.7428 25.9201 74.5488 25.9201H71.8476ZM79.5528 19.4435C79.3391 19.7483 78.8936 19.7647 78.6581 19.4765L77.497 18.0558C77.3499 17.8758 77.3289 17.6239 77.4441 17.422L79.878 13.1573C79.978 12.9821 80.1642 12.874 80.3658 12.874H83.0786C83.5332 12.874 83.7994 13.3858 83.5385 13.758L79.5528 19.4435Z" fill="#242629"/>
<path id="Vector_6" d="M63.8609 26.1675C62.4469 26.1675 61.2139 25.8798 60.1616 25.3043C59.1094 24.7289 58.2873 23.9397 57.6954 22.9368C57.1036 21.9339 56.8076 20.783 56.8076 19.4842C56.8076 18.4812 56.972 17.5605 57.3009 16.722C57.6297 15.8835 58.09 15.1601 58.6819 14.5518C59.2738 13.927 59.9725 13.4502 60.7782 13.1214C61.6002 12.7761 62.4881 12.6035 63.4416 12.6035C64.3295 12.6035 65.1515 12.7679 65.9078 13.0968C66.6641 13.4091 67.3135 13.8613 67.8561 14.4532C68.4151 15.0286 68.8426 15.7109 69.1385 16.5001C69.4345 17.2893 69.566 18.1524 69.5331 19.0896L69.5209 19.6258C69.514 19.931 69.2647 20.1747 68.9595 20.1747H59.4596C59.2047 20.1747 58.9818 20.003 58.9167 19.7566L58.6464 18.7343C58.5522 18.378 58.8208 18.0291 59.1893 18.0291H66.3507C66.4562 18.0291 66.5122 18.1538 66.4421 18.2326C66.3674 18.3167 66.2284 18.2638 66.2284 18.1514V17.9305C66.1955 17.4866 66.0476 17.0837 65.7845 16.722C65.5379 16.3603 65.2173 16.0808 64.8227 15.8835C64.4281 15.6862 63.9842 15.5876 63.491 15.5876C62.7676 15.5876 62.151 15.7273 61.6413 16.0068C61.1481 16.2863 60.7699 16.6974 60.5069 17.2399C60.2438 17.7825 60.1123 18.4401 60.1123 19.2129C60.1123 20.0021 60.2767 20.6844 60.6055 21.2598C60.9508 21.8352 61.4276 22.2874 62.0359 22.6162C62.6607 22.9286 63.3923 23.0848 64.2308 23.0848C64.8063 23.0848 65.3324 22.9944 65.8092 22.8135C66.1437 22.6866 66.4944 22.495 66.8612 22.2387C67.1271 22.0528 67.4981 22.0997 67.6869 22.3635L68.7223 23.8101C68.889 24.0429 68.8552 24.3659 68.6295 24.5423C68.2588 24.8321 67.8612 25.0861 67.4369 25.3043C66.8614 25.5838 66.2695 25.7976 65.6612 25.9455C65.0529 26.0935 64.4528 26.1675 63.8609 26.1675Z" fill="#242629"/>
<path id="Vector_7" d="M51.4161 25.9206C51.1059 25.9206 50.8545 25.6692 50.8545 25.359V8.2325C50.8545 7.92234 51.1059 7.6709 51.4161 7.6709H53.7949C54.105 7.6709 54.3565 7.92234 54.3565 8.2325V25.359C54.3565 25.6692 54.105 25.9206 53.7949 25.9206H51.4161Z" fill="#242629"/>
<path id="Vector_8" d="M36.7618 25.9205C36.4516 25.9205 36.2002 25.669 36.2002 25.3589V9.21883C36.2002 8.90867 36.4516 8.65723 36.7618 8.65723H39.3379C39.648 8.65723 39.8995 8.90867 39.8995 9.21883V25.3589C39.8995 25.669 39.648 25.9205 39.3379 25.9205H36.7618ZM38.4635 19.0645C38.1533 19.0645 37.9019 18.8131 37.9019 18.5029V16.4447C37.9019 16.1346 38.1533 15.8831 38.4635 15.8831H46.2678C46.578 15.8831 46.8294 16.1346 46.8294 16.4447V18.5029C46.8294 18.8131 46.578 19.0645 46.2678 19.0645H38.4635ZM38.4635 11.9866C38.1533 11.9866 37.9019 11.7351 37.9019 11.425V9.21883C37.9019 8.90867 38.1533 8.65723 38.4635 8.65723H47.3036C47.6138 8.65723 47.8652 8.90867 47.8652 9.21883V11.425C47.8652 11.7351 47.6138 11.9866 47.3036 11.9866H38.4635Z" fill="#242629"/>
</g>
<g id="Logo Mark">
<g id="Logo mark">
<g id="House">
<path id="D" d="M-0.000164032 1.40429C-0.000164032 0.697207 0.672379 0.183807 1.35445 0.370218L25.7731 7.04388C26.2392 7.17127 26.5625 7.59475 26.5625 8.07795L26.5625 19.8651C26.5625 21.813 26.2336 23.5712 25.5759 25.1397C24.9434 26.7334 24.0327 28.0995 22.8437 29.2379C21.68 30.4016 20.2886 31.287 18.6696 31.8942C17.0505 32.5013 15.2544 32.8049 13.2812 32.8049C11.3332 32.8049 9.53709 32.5013 7.89274 31.8942C6.27368 31.287 4.86966 30.4142 3.68066 29.2758C2.51696 28.1374 1.60625 26.7714 0.948502 25.1776C0.316057 23.5838 -0.000164032 21.813 -0.000164032 19.8651L-0.000164032 1.40429ZM5.58649 14.178C5.29608 14.3781 5.12263 14.7082 5.12263 15.0608L5.12263 19.6753C5.12263 20.8137 5.31237 21.8383 5.69183 22.749C6.0966 23.6597 6.6405 24.4313 7.32354 25.0638C8.03187 25.7215 8.892 26.2148 9.90391 26.5437C10.9158 26.8726 12.0416 27.037 13.2812 27.037C14.5208 27.037 15.6339 26.8726 16.6205 26.5437C17.6324 26.2148 18.4925 25.7215 19.2008 25.0638C19.9092 24.4313 20.4531 23.6597 20.8326 22.749C21.2373 21.8383 21.4397 20.8137 21.4397 19.6753V15.0608C21.4397 14.7082 21.2663 14.3781 20.9758 14.178L13.8893 9.29635C13.5231 9.0441 13.0392 9.0441 12.673 9.29635L5.58649 14.178Z" fill="#242629"/>
</g>
</g>
</g>
</g>
</svg>
