<svg width="242" height="52" viewBox="0 0 242 52" fill="none" xmlns="http://www.w3.org/2000/svg">
<path d="M223.801 41.016C223.31 41.016 222.912 40.6181 222.912 40.1274V21.2615C222.912 20.7707 223.31 20.3729 223.801 20.3729H227.363C227.841 20.3729 228.233 20.7509 228.251 21.2286L228.365 24.3003C228.371 24.4732 228.27 24.6323 228.111 24.7005C227.784 24.8408 227.456 24.5376 227.61 24.2165C227.902 23.6071 228.3 23.0413 228.805 22.5191C229.559 21.7387 230.457 21.1143 231.497 20.646C232.538 20.1777 233.63 19.9436 234.775 19.9436C236.336 19.9436 237.637 20.2558 238.677 20.8802C239.744 21.5045 240.537 22.4541 241.058 23.7288C241.604 24.9776 241.877 26.5255 241.877 28.3726V40.1274C241.877 40.6181 241.479 41.016 240.989 41.016H237.225C236.734 41.016 236.336 40.6181 236.336 40.1274V28.8018C236.336 27.8653 236.206 27.0848 235.946 26.4604C235.686 25.8361 235.282 25.3808 234.736 25.0946C234.216 24.7825 233.565 24.6524 232.785 24.7044C232.161 24.7044 231.575 24.8085 231.029 25.0166C230.509 25.1987 230.053 25.4719 229.663 25.8361C229.299 26.2003 229 26.6165 228.766 27.0848C228.557 27.5531 228.453 28.0604 228.453 28.6067V40.1274C228.453 40.6181 228.056 41.016 227.565 41.016H225.722C225.123 41.016 224.59 41.016 224.122 41.016C224.011 41.016 223.904 41.016 223.801 41.016Z" fill="#242629"/>
<path d="M196.148 41.0155C195.766 41.0155 195.427 40.7712 195.306 40.4088L188.993 21.5429C188.801 20.9673 189.229 20.3723 189.836 20.3723H193.716C194.108 20.3723 194.454 20.6297 194.567 21.0056L198.456 33.97C198.52 34.1809 198.344 34.3868 198.125 34.357C197.928 34.3301 197.81 34.1226 197.887 33.9389L202.147 23.8802C202.286 23.5515 202.609 23.3381 202.965 23.3381H205.075C205.427 23.3381 205.746 23.5464 205.888 23.869L210.309 33.9223C210.399 34.1282 210.26 34.362 210.036 34.3807C209.806 34.3998 209.629 34.1813 209.695 33.9601L213.581 21.0056C213.694 20.6297 214.04 20.3723 214.433 20.3723H218.306C218.915 20.3723 219.343 20.9708 219.147 21.5472L212.728 40.4131C212.605 40.7733 212.267 41.0155 211.886 41.0155H209.096C208.737 41.0155 208.414 40.7993 208.276 40.4676L203.763 29.6C203.701 29.4527 203.822 29.2941 203.981 29.3139C204.116 29.3309 204.199 29.4721 204.147 29.5989L199.715 40.4625C199.578 40.7969 199.253 41.0155 198.892 41.0155H196.148Z" fill="#242629"/>
<path d="M176.495 41.4062C174.388 41.4062 172.501 40.951 170.836 40.0404C169.197 39.1039 167.897 37.8291 166.934 36.2162C165.998 34.6032 165.529 32.7561 165.529 30.6749C165.529 28.5937 165.998 26.7596 166.934 25.1727C167.897 23.5597 169.197 22.285 170.836 21.3484C172.501 20.4119 174.388 19.9436 176.495 19.9436C178.576 19.9436 180.436 20.4119 182.075 21.3484C183.74 22.285 185.041 23.5597 185.977 25.1727C186.914 26.7596 187.382 28.5937 187.382 30.6749C187.382 32.7561 186.914 34.6032 185.977 36.2162C185.041 37.8291 183.74 39.1039 182.075 40.0404C180.436 40.951 178.576 41.4062 176.495 41.4062ZM176.495 36.5674C177.509 36.5674 178.42 36.3202 179.226 35.8259C180.033 35.3056 180.657 34.6032 181.099 33.7187C181.568 32.8082 181.802 31.7936 181.802 30.6749C181.802 29.5302 181.568 28.5156 181.099 27.6311C180.657 26.7206 180.033 26.0182 179.226 25.5239C178.42 25.0036 177.509 24.7434 176.495 24.7434C175.454 24.7434 174.531 25.0036 173.724 25.5239C172.918 26.0442 172.28 26.7466 171.812 27.6311C171.344 28.5156 171.123 29.5302 171.149 30.6749C171.123 31.7936 171.344 32.8082 171.812 33.7187C172.28 34.6032 172.918 35.3056 173.724 35.8259C174.531 36.3202 175.454 36.5674 176.495 36.5674Z" fill="#242629"/>
<path d="M138.764 41.0158C138.273 41.0158 137.875 40.6179 137.875 40.1271V14.5883C137.875 14.0976 138.273 13.6997 138.764 13.6997H149.075C151.078 13.6997 152.886 14.0379 154.499 14.7143C156.138 15.3647 157.543 16.3012 158.713 17.524C159.91 18.7207 160.821 20.1515 161.445 21.8165C162.069 23.4815 162.381 25.3285 162.381 27.3577C162.381 29.3609 162.069 31.208 161.445 32.899C160.821 34.564 159.923 36.0078 158.752 37.2305C157.582 38.4273 156.177 39.3638 154.538 40.0402C152.899 40.6906 151.078 41.0158 149.075 41.0158H138.764ZM143.728 35.9715C143.728 36.1972 143.432 36.281 143.314 36.0888C143.222 35.9397 143.33 35.7477 143.505 35.7477H148.879C150.05 35.7477 151.104 35.5526 152.04 35.1623C152.977 34.7461 153.77 34.1868 154.421 33.4843C155.097 32.7559 155.604 31.8714 155.943 30.8308C156.281 29.7902 156.45 28.6325 156.45 27.3577C156.45 26.083 156.281 24.9383 155.943 23.9237C155.604 22.8831 155.097 21.9986 154.421 21.2702C153.77 20.5417 152.977 19.9824 152.04 19.5922C151.104 19.1759 150.05 18.9678 148.879 18.9678H143.487C143.285 18.9678 143.172 18.7345 143.297 18.576C143.439 18.3964 143.728 18.4969 143.728 18.7261V35.9715Z" fill="#242629"/>
<path d="M127.496 41.0155C127.206 41.0155 126.934 40.8741 126.768 40.6367L121.922 33.7182L120.361 31.5329L113.073 21.7933C112.635 21.2074 113.053 20.3723 113.784 20.3723H118.262C118.55 20.3723 118.821 20.5123 118.987 20.7479L123.717 27.4355L125.434 29.7768L132.632 39.6016C133.062 40.1886 132.642 41.0155 131.915 41.0155H127.496ZM113.681 41.0155C112.954 41.0155 112.534 40.19 112.963 39.6028L119.496 30.6545C119.837 30.1884 120.524 30.1652 120.895 30.6074L122.795 32.8733C123.042 33.1678 123.072 33.5877 122.869 33.914L118.709 40.5964C118.547 40.857 118.262 41.0155 117.955 41.0155H113.681ZM125.873 30.7674C125.535 31.2496 124.83 31.2756 124.457 30.8196L122.62 28.5715C122.387 28.2868 122.354 27.8881 122.536 27.5687L126.388 20.8205C126.546 20.5434 126.84 20.3723 127.159 20.3723H131.452C132.171 20.3723 132.592 21.1821 132.18 21.7711L125.873 30.7674Z" fill="#242629"/>
<path d="M101.045 41.4062C98.808 41.4062 96.8569 40.951 95.1919 40.0404C93.5269 39.1299 92.2261 37.8812 91.2896 36.2942C90.353 34.7073 89.8848 32.8862 89.8848 30.831C89.8848 29.2441 90.1449 27.7872 90.6652 26.4604C91.1855 25.1337 91.914 23.989 92.8505 23.0264C93.7871 22.0378 94.8927 21.2834 96.1675 20.7631C97.4682 20.2168 98.8731 19.9436 100.382 19.9436C101.787 19.9436 103.088 20.2038 104.284 20.7241C105.481 21.2184 106.509 21.9338 107.367 22.8703C108.252 23.7809 108.928 24.8605 109.396 26.1092C109.865 27.358 110.073 28.7238 110.021 30.2066L110.001 31.0552C109.99 31.538 109.596 31.9237 109.113 31.9237H94.0811C93.6778 31.9237 93.325 31.652 93.2219 31.2621L92.7943 29.6444C92.6453 29.0807 93.0703 28.5287 93.6534 28.5287H104.985C105.152 28.5287 105.241 28.7259 105.13 28.8507C105.011 28.9837 104.792 28.9001 104.792 28.7221V28.3726C104.74 27.6701 104.505 27.0328 104.089 26.4604C103.699 25.8881 103.192 25.4458 102.567 25.1337C101.943 24.8215 101.24 24.6654 100.46 24.6654C99.3153 24.6654 98.3397 24.8865 97.5333 25.3288C96.7528 25.771 96.1545 26.4214 95.7382 27.2799C95.322 28.1384 95.1138 29.179 95.1138 30.4018C95.1138 31.6505 95.374 32.7301 95.8943 33.6407C96.4406 34.5512 97.1951 35.2666 98.1576 35.7869C99.1462 36.2812 100.304 36.5284 101.631 36.5284C102.541 36.5284 103.374 36.3853 104.128 36.0991C104.657 35.8983 105.212 35.5951 105.793 35.1895C106.214 34.8955 106.801 34.9696 107.099 35.387L108.738 37.676C109.001 38.0445 108.948 38.5555 108.591 38.8346C108.004 39.2931 107.375 39.6951 106.704 40.0404C105.793 40.4827 104.857 40.8209 103.894 41.055C102.931 41.2892 101.982 41.4062 101.045 41.4062Z" fill="#242629"/>
<path d="M81.3535 41.0154C80.8627 41.0154 80.4648 40.6176 80.4648 40.1268V13.0271C80.4648 12.5363 80.8627 12.1384 81.3535 12.1384H85.1175C85.6082 12.1384 86.0061 12.5363 86.0061 13.0271V40.1268C86.0061 40.6176 85.6082 41.0154 85.1175 41.0154H81.3535Z" fill="#242629"/>
<path d="M58.164 41.0158C57.6733 41.0158 57.2754 40.6179 57.2754 40.1271V14.5883C57.2754 14.0976 57.6732 13.6997 58.164 13.6997H62.2402C62.731 13.6997 63.1288 14.0976 63.1288 14.5883V40.1271C63.1288 40.6179 62.731 41.0158 62.2402 41.0158H58.164ZM60.8566 30.1674C60.3658 30.1674 59.968 29.7695 59.968 29.2788V26.0221C59.968 25.5313 60.3658 25.1334 60.8566 25.1334H73.2056C73.6964 25.1334 74.0943 25.5313 74.0943 26.0221V29.2788C74.0943 29.7695 73.6964 30.1674 73.2056 30.1674H60.8566ZM60.8566 18.9678C60.3658 18.9678 59.968 18.5699 59.968 18.0792V14.5884C59.968 14.0976 60.3658 13.6997 60.8566 13.6997H74.8446C75.3354 13.6997 75.7332 14.0976 75.7332 14.5884V18.0792C75.7332 18.5699 75.3354 18.9678 74.8446 18.9678H60.8566Z" fill="#242629"/>
<path d="M0.000511169 2.22204C0.000511169 1.10321 1.06469 0.290842 2.14394 0.585805L40.7821 11.1457C41.5197 11.3473 42.0312 12.0174 42.0312 12.7819L42.0312 31.433C42.0312 34.5152 41.5109 37.2973 40.4701 39.7791C39.4694 42.3009 38.0283 44.4625 36.1469 46.2638C34.3056 48.1052 32.104 49.5062 29.5421 50.4669C26.9802 51.4276 24.1382 51.908 21.0159 51.908C17.9336 51.908 15.0915 51.4276 12.4896 50.4669C9.92776 49.5062 7.70614 48.1252 5.82477 46.3239C3.98342 44.5226 2.54237 42.361 1.50161 39.8391C0.500874 37.3173 0.000511169 34.5152 0.000511169 31.433V2.22204ZM8.84041 22.4342C8.38088 22.7508 8.10643 23.2731 8.10643 23.8311V31.1328C8.10643 32.9341 8.40665 34.5553 9.0071 35.9963C9.64756 37.4374 10.5082 38.6583 11.589 39.659C12.7098 40.6998 14.0708 41.4803 15.672 42.0007C17.2731 42.5211 19.0544 42.7813 21.0159 42.7813C22.9773 42.7813 24.7386 42.5211 26.2997 42.0007C27.9009 41.4803 29.2619 40.6998 30.3827 39.659C31.5035 38.6583 32.3642 37.4374 32.9646 35.9963C33.6051 34.5553 33.9253 32.9341 33.9253 31.1328V23.8311C33.9253 23.2731 33.6509 22.7508 33.1913 22.4342L21.9781 14.7098C21.3987 14.3107 20.633 14.3107 20.0536 14.7098L8.84041 22.4342Z" fill="#242629"/>
</svg>
